<?xml version="1.0" encoding="UTF-8"?>
<svg version="1.1" xmlns="http://www.w3.org/2000/svg" width="1024" height="1024">
<path d="M0 0 C337.92 0 675.84 0 1024 0 C1024 337.92 1024 675.84 1024 1024 C686.08 1024 348.16 1024 0 1024 C0 686.08 0 348.16 0 0 Z " fill="#ffffff" transform="translate(0,0)"/>
<path d="M0 0 C0.97694824 0.35288086 0.97694824 0.35288086 1.97363281 0.71289062 C20.04111352 7.42234893 33.81055734 19.47087756 47.19116211 32.99584961 C48.25972189 34.06825927 49.32874646 35.14020597 50.39819336 36.21173096 C52.67741243 38.49721253 54.95350253 40.78574669 57.22712517 43.07679558 C60.82343452 46.70039113 64.42757719 50.31612909 68.03285217 53.93080139 C75.67372077 61.59374852 83.30602338 69.26520118 90.9375 76.9375 C99.20288899 85.24700039 107.46978552 93.55496972 115.7464276 101.85326391 C119.32999996 105.44679205 122.90864289 109.0451365 126.48356903 112.64726532 C128.70292706 114.88152945 130.92640974 117.11165335 133.15103912 119.34066772 C134.18156834 120.37494315 135.21036605 121.41094713 136.23729897 122.44879341 C137.63854514 123.86446175 139.04657458 125.27340637 140.4549408 126.68199158 C141.2407701 127.47226211 142.02659941 128.26253263 142.83624172 129.07675076 C144.83490676 130.85325743 146.5540273 131.95924625 149 133 C149.95268013 132.0339962 149.95268013 132.0339962 150.92460632 131.04847717 C156.95858994 124.93381461 163.00254834 118.82921888 169.05746746 112.73528385 C172.16883653 109.60318099 175.27643378 106.46753059 178.37524414 103.32299805 C181.37479679 100.27947484 184.38447041 97.24628617 187.40094948 94.21954155 C188.54094339 93.07224701 189.67745726 91.92148198 190.81012535 90.76695442 C211.14558172 70.05537072 235.2630745 58.36693712 264.72998047 57.76538086 C289.36392797 57.60294223 311.75042848 65.30236054 330 82 C330.76699219 82.69738281 331.53398438 83.39476562 332.32421875 84.11328125 C345.80916145 96.98634174 356.54769582 112.79031147 361 131 C361.31904297 132.29357422 361.31904297 132.29357422 361.64453125 133.61328125 C367.97242214 162.15707685 362.51372046 189.52541067 347 214 C338.03460366 227.10179165 326.02968961 238.12900617 314.8425293 249.2878418 C312.30466418 251.82031918 309.77222313 254.35813322 307.24023438 256.89648438 C305.6149041 258.52115429 303.98926389 260.14551422 302.36328125 261.76953125 C301.61315262 262.52168411 300.86302399 263.27383698 300.09016418 264.04878235 C296.2061001 267.91563318 292.27726577 271.57169582 288 275 C293.05085009 281.11100167 298.55519794 286.6678447 304.18359375 292.24609375 C305.16745578 293.22553818 306.15101639 294.20528546 307.1342926 295.18531799 C310.75552953 298.79330283 314.38221867 302.39579068 318.00878906 305.99841309 C321.08196851 309.05171768 324.15299153 312.10716182 327.22130013 315.1653614 C328.64540421 316.58307557 330.07259219 317.99768981 331.49986267 319.41221619 C335.96456752 323.86018181 340.26040515 328.36548294 344.36375427 333.14781189 C347.12277314 336.27095034 350.11744944 339.14160752 353.11328125 342.03515625 C354.45829467 343.35289086 355.80267551 344.6712714 357.14648438 345.99023438 C359.22012767 348.02097639 361.29711179 350.04764823 363.38549805 352.06323242 C374.80377732 363.10221188 384.73744548 374.42035305 390.9375 389.25 C391.21416504 389.91056396 391.49083008 390.57112793 391.77587891 391.25170898 C401.76229356 415.67777906 400.66538861 443.94984716 391.09179688 468.31103516 C381.2445656 491.61719454 363.50198901 510.28959736 340 520 C334.73108309 521.8787496 329.38154638 523.47886471 324 525 C323.41613525 525.17958252 322.83227051 525.35916504 322.23071289 525.54418945 C305.1299405 529.03845913 283.14048825 527.31648942 267 521 C266.22785156 520.71060547 265.45570313 520.42121094 264.66015625 520.12304688 C262.25508189 519.20506469 259.87535387 518.24221131 257.5 517.25 C256.80583984 516.96382812 256.11167969 516.67765625 255.39648438 516.3828125 C241.87000152 510.25664139 231.53711302 497.78337824 221.2787075 487.42903709 C218.49600457 484.62056974 215.70701338 481.81843582 212.91609192 479.0181427 C207.00054598 473.08056677 201.09359431 467.13447523 195.1875 461.1875 C188.79094259 454.74676093 182.39284255 448.30759548 175.98495847 441.87812215 C172.77001845 438.65167602 169.56296932 435.41750803 166.35722351 432.18193054 C164.67488755 430.49232966 162.99227023 428.80300886 161.30932617 427.11401367 C160.17538673 425.96457527 160.17538673 425.96457527 159.01853943 424.79191589 C155.23135197 421.00397378 151.59483921 417.76519031 147 415 C146.15405273 415.85380249 146.15405273 415.85380249 145.29101562 416.72485352 C142.69673231 419.34011844 140.09840077 421.95132619 137.5 424.5625 C136.613125 425.45775391 135.72625 426.35300781 134.8125 427.27539062 C130.22911462 431.87562668 125.60007982 436.33874116 120.66699219 440.56274414 C118.66853965 442.28578018 116.78192542 444.11435164 114.875 445.9375 C95.49194147 463.09300292 65.4121273 469.32370462 40.13623047 468.17041016 C20.03081102 466.56657212 -3.31579909 455.25540752 -16.98046875 440.4296875 C-37.1976362 416.10651893 -48.30383508 389.04667991 -46 357 C-44.98513498 346.71821697 -42.61615665 337.29226338 -38 328 C-37.71495605 327.40977051 -37.42991211 326.81954102 -37.13623047 326.21142578 C-29.88314728 311.2939823 -19.84049303 300.64101553 -7.6796875 289.54492188 C-3.15038926 285.37902082 1.11693901 281.05536414 5.11303711 276.37866211 C5.65359238 275.74649277 6.19414764 275.11432343 6.75108337 274.46299744 C7.16322586 273.98020828 7.57536835 273.49741913 8 273 C1.62197657 266.59870643 -4.7588186 260.200192 -11.14307404 253.80511379 C-14.10811917 250.83487173 -17.07223594 247.86371591 -20.03417969 244.89038086 C-22.89784918 242.0157683 -25.76402408 239.1436751 -28.63188171 236.27324104 C-29.72026862 235.18302032 -30.80778183 234.09192658 -31.8943634 232.99990654 C-38.71792834 226.10669903 -38.71792834 226.10669903 -45.89892578 219.59228516 C-52.01341184 214.35557732 -57.63105419 208.5758209 -63.3359375 202.90234375 C-63.9670406 202.27531618 -64.59814369 201.64828861 -65.24837112 201.00226021 C-68.58910471 197.68227536 -71.92662861 194.35910073 -75.26171875 191.03344727 C-78.67096 187.63524375 -82.09171922 184.24888736 -85.51524925 180.86508846 C-88.17834326 178.22838166 -90.8322819 175.5825954 -93.48399734 172.93445015 C-94.73946191 171.68379496 -95.99824461 170.43645994 -97.26066208 169.19282341 C-117.99815251 148.74480505 -130.72423669 125.47956594 -131.54101562 95.81298828 C-131.71302523 67.78715061 -122.89427673 42.04379229 -102.99609375 21.8125 C-76.5685045 -3.69533556 -34.33296862 -12.5959182 0 0 Z " fill="#013059" transform="translate(365,248)"/>
<path d="M0 0 C1.26651146 -0.00855011 1.26651146 -0.00855011 2.55860901 -0.01727295 C4.33959714 -0.02669296 6.12060247 -0.03324497 7.90161133 -0.03710938 C10.61635809 -0.04683007 13.33035202 -0.07788747 16.04492188 -0.109375 C17.77994345 -0.11590453 19.5149704 -0.1211552 21.25 -0.125 C22.05642441 -0.1373468 22.86284882 -0.1496936 23.69371033 -0.16241455 C28.59891972 -0.14315169 31.93603415 0.4977121 36.19140625 3.203125 C40.66901511 8.91593631 40.33529655 15.65368899 40.25390625 22.578125 C40.24939453 23.31417969 40.24488281 24.05023437 40.24023438 24.80859375 C40.22855767 26.60680658 40.21062636 28.40497697 40.19140625 30.203125 C41.77438651 30.6834568 43.35780603 31.16234112 44.94140625 31.640625 C46.26398438 32.04087891 46.26398438 32.04087891 47.61328125 32.44921875 C48.4640625 32.69800781 49.31484375 32.94679688 50.19140625 33.203125 C50.85269531 33.491875 51.51398438 33.780625 52.1953125 34.078125 C54.4421214 34.43622716 54.4421214 34.43622716 56.671875 32.33203125 C57.56519531 31.48511719 58.45851563 30.63820313 59.37890625 29.765625 C63.68877308 26.076379 66.3249665 24.19849468 72.0234375 24.49609375 C77.58170597 26.30879031 81.80100935 30.50422875 85.8515625 34.5625 C86.36391953 35.0705719 86.87627655 35.5786438 87.40415955 36.10211182 C88.47973541 37.17198032 89.55274874 38.24443069 90.62329102 39.31933594 C92.24440291 40.94360316 93.87837618 42.55409164 95.51367188 44.1640625 C109.04430196 57.60828248 109.04430196 57.60828248 109.87890625 65.703125 C109.5901742 71.08658066 106.60918244 74.28950564 103.19140625 78.203125 C100.91077797 81.62406742 100.97215618 82.88499722 101.06640625 86.890625 C101.08445312 87.88449219 101.1025 88.87835937 101.12109375 89.90234375 C101.14429688 90.66160156 101.1675 91.42085937 101.19140625 92.203125 C102.36058594 92.16832031 103.52976562 92.13351562 104.734375 92.09765625 C106.28253766 92.06950784 107.83071593 92.04220881 109.37890625 92.015625 C110.14783203 91.99048828 110.91675781 91.96535156 111.70898438 91.93945312 C116.34016288 91.87982422 119.60331694 91.95918635 123.19140625 95.203125 C126.88023664 100.79038342 127.78089314 105.71241258 127.6875 112.3046875 C127.68895523 113.14478363 127.69041046 113.98487976 127.69190979 114.85043335 C127.69026046 116.61354059 127.67880836 118.3766637 127.65795898 120.13964844 C127.62890654 122.82809849 127.63738947 125.51458396 127.65039062 128.203125 C127.64415474 129.92448868 127.63576498 131.64584619 127.625 133.3671875 C127.62793564 134.16420074 127.63087128 134.96121399 127.63389587 135.78237915 C127.55222346 140.64076912 126.84618442 143.98166515 124.19140625 148.203125 C120.23300343 151.42243645 115.90569653 152.0788353 111.00390625 152.890625 C110.28009766 153.02017578 109.55628906 153.14972656 108.81054688 153.28320312 C103.578187 154.203125 103.578187 154.203125 101.19140625 154.203125 C100.11615431 156.85541312 99.09684474 159.48680954 98.19140625 162.203125 C98.90167969 162.82960938 99.61195313 163.45609375 100.34375 164.1015625 C101.72240234 165.32746094 101.72240234 165.32746094 103.12890625 166.578125 C104.04542969 167.39023437 104.96195313 168.20234375 105.90625 169.0390625 C108.97599048 171.94613297 109.41617341 173.64634366 109.62890625 177.765625 C109.68949219 178.57128906 109.75007812 179.37695312 109.8125 180.20703125 C107.88721716 189.49440195 99.32861953 196.5536218 92.87890625 202.953125 C91.97978516 203.87222656 91.08066406 204.79132813 90.15429688 205.73828125 C77.64962734 218.23390909 77.64962734 218.23390909 69.00390625 218.765625 C63.77883655 217.99471308 60.97620162 215.84880134 57.13671875 212.30859375 C52.95791973 208.40660399 52.95791973 208.40660399 47.61328125 207.19921875 C45.37216843 207.71016428 43.31358065 208.32515687 41.19140625 209.203125 C41.15402344 210.193125 41.11664063 211.183125 41.078125 212.203125 C40.29289288 229.19855982 40.29289288 229.19855982 35.19140625 234.140625 C30.69835005 236.52756111 26.42030406 236.38091405 21.46484375 236.40625 C20.60259186 236.41195007 19.74033997 236.41765015 18.85195923 236.42352295 C17.02452825 236.43297066 15.19708025 236.43950602 13.36962891 236.44335938 C10.59767085 236.45301608 7.82647002 236.48402085 5.0546875 236.515625 C3.27474396 236.52216043 1.49479514 236.52740878 -0.28515625 236.53125 C-1.10424469 236.5435968 -1.92333313 236.5559436 -2.76724243 236.56866455 C-9.09248753 236.54465004 -16.02226726 235.81530609 -20.80859375 231.328125 C-23.0083079 226.65373244 -22.91870865 221.98541935 -22.87109375 216.890625 C-22.86207031 215.63636719 -22.85304688 214.38210938 -22.84375 213.08984375 C-22.83214844 212.13722656 -22.82054687 211.18460938 -22.80859375 210.203125 C-26.5031567 208.9946231 -29.90781638 208.18804468 -33.80859375 208.203125 C-36.56827864 209.64530972 -38.56644675 211.28523061 -40.8359375 213.40625 C-44.49959078 216.74343913 -47.67924021 217.74547817 -52.69726562 217.56274414 C-60.9439682 216.15809649 -67.39081628 208.08221109 -73.01904297 202.38378906 C-74.55897735 200.82773738 -76.11434756 199.28841968 -77.671875 197.75 C-78.6715364 196.74835649 -79.67026697 195.74578293 -80.66796875 194.7421875 C-81.55967773 193.84709473 -82.45138672 192.95200195 -83.37011719 192.02978516 C-86.84619732 188.00034425 -89.44839515 184.14819744 -90.43359375 178.828125 C-89.43358399 173.02806839 -85.99350886 168.58799885 -82.05859375 164.29296875 C-80.31018108 161.36984132 -80.88205821 159.72044001 -81.62109375 156.453125 C-81.83378906 155.46828125 -82.04648438 154.4834375 -82.265625 153.46875 C-82.53439453 152.34726562 -82.53439453 152.34726562 -82.80859375 151.203125 C-83.82179687 151.16574219 -84.835 151.12835937 -85.87890625 151.08984375 C-87.23050314 151.02414112 -88.58206404 150.95769529 -89.93359375 150.890625 C-90.93132812 150.85678711 -90.93132812 150.85678711 -91.94921875 150.82226562 C-96.57514142 150.57282862 -99.86303893 149.62043105 -103.80859375 147.203125 C-109.41432765 140.68835317 -108.96536495 132.71084128 -109.01171875 124.5390625 C-109.01741882 123.74335846 -109.0231189 122.94765442 -109.0289917 122.12783813 C-109.0383702 120.45893659 -109.04494691 118.79001713 -109.04882812 117.12109375 C-109.058595 114.57779979 -109.08970947 112.03529464 -109.12109375 109.4921875 C-109.12761977 107.86198391 -109.13287181 106.23177461 -109.13671875 104.6015625 C-109.14906555 103.84829681 -109.16141235 103.09503113 -109.1741333 102.31893921 C-109.15398479 97.52203782 -108.42771092 94.23532318 -105.80859375 90.203125 C-103.01059175 87.49441325 -100.88288548 86.79264931 -97.04296875 86.47265625 C-95.70878906 86.35180664 -95.70878906 86.35180664 -94.34765625 86.22851562 C-93.42726562 86.15826172 -92.506875 86.08800781 -91.55859375 86.015625 C-90.62273437 85.93376953 -89.686875 85.85191406 -88.72265625 85.76757812 C-86.41869728 85.56774495 -84.11440759 85.3800311 -81.80859375 85.203125 C-80.41586894 81.98044716 -80.41586894 81.98044716 -79.80859375 78.203125 C-81.40327819 75.37845789 -81.40327819 75.37845789 -83.99609375 73.078125 C-91.2354776 65.94134659 -91.2354776 65.94134659 -92.37109375 60.515625 C-89.87210333 45.79934811 -71.91924709 31.07954849 -60.93359375 21.765625 C-56.7537982 19.67572723 -53.39570351 19.39996679 -48.80859375 20.203125 C-45.6595042 21.77766977 -43.48560685 23.4519403 -41.1328125 26.0625 C-39.42896297 27.95146844 -37.83763342 29.66583949 -35.80859375 31.203125 C-32.2195429 31.36897691 -32.2195429 31.36897691 -28.80859375 30.203125 C-26.81134798 29.85366766 -24.81161953 29.5177658 -22.80859375 29.203125 C-22.86080078 27.60984375 -22.86080078 27.60984375 -22.9140625 25.984375 C-23.2604014 11.18625826 -23.2604014 11.18625826 -19.80859375 5.203125 C-13.67799847 0.0054464 -7.64948004 0.04021202 0 0 Z " fill="#FCC536" transform="translate(254.80859375,658.796875)"/>
<path d="M0 0 C3.52608508 2.94019595 6.76493272 6.0573092 10 9.3125 C10.73386334 10.04636334 11.46772669 10.78022669 12.22382832 11.53632832 C45.81588554 45.12838554 79.40794277 78.72044277 113 112.3125 C111.49766608 115.81695829 109.47833104 118.09209113 106.80020142 120.78645325 C105.91974655 121.67688324 105.03929169 122.56731323 104.13215637 123.48472595 C103.15413443 124.46364362 102.17599637 125.44244529 101.19775391 126.42114258 C100.16908552 127.4574339 99.14082095 128.4941262 98.1129303 129.53118896 C95.32240576 132.34364315 92.52534938 135.14951093 89.72638369 137.95356202 C87.97887018 139.70471876 86.23266204 141.45716657 84.48688889 143.21005821 C78.39931815 149.32211126 72.30605897 155.42843337 66.20800781 161.5300293 C60.51800434 167.22367437 54.84128596 172.93033598 49.17041266 178.64302903 C44.30360391 183.54446959 39.42727932 188.43630493 34.5434736 193.32080954 C31.6254445 196.23963343 28.71157111 199.162339 25.8073616 202.0949192 C23.07846769 204.84987426 20.337991 207.59274281 17.58799553 210.32662964 C16.57905108 211.33375046 15.57439514 212.34518801 14.57432365 213.36112022 C13.21235005 214.7433739 11.83349737 216.10893637 10.45376587 217.47346497 C9.68574457 218.24349759 8.91772327 219.01353022 8.1264286 219.80689716 C6 221.3125 6 221.3125 3.86586475 221.17411709 C1.06940939 219.88277283 -0.70775727 217.96235717 -2.87280273 215.78027344 C-3.34328033 215.31023392 -3.81375793 214.8401944 -4.29849243 214.35591125 C-5.85074394 212.80157162 -7.39209473 211.23687286 -8.93359375 209.671875 C-10.013833 208.5860355 -11.09474025 207.50086018 -12.17628479 206.4163208 C-15.02345421 203.55770016 -17.86151114 200.69019636 -20.69775391 197.82073975 C-23.57242314 194.91551253 -26.45546875 192.01862575 -29.33789062 189.12109375 C-34.42047379 184.00980904 -39.4956035 178.89122541 -44.56541443 173.76727295 C-47.03676006 171.27543513 -49.51733568 168.79305559 -52 166.3125 C-53.60075871 164.70101566 -55.20100587 163.08902304 -56.80078125 161.4765625 C-58.63794865 159.63013651 -60.47519045 157.78378454 -62.3125 155.9375 C-63.22451172 155.01710938 -64.13652344 154.09671875 -65.07617188 153.1484375 C-69.65890833 148.54927546 -74.2862135 144.09416309 -79.21508789 139.86816406 C-81.9483351 137.48596584 -84.51156632 134.94958529 -87.0625 132.375 C-87.8354541 131.60023315 -87.8354541 131.60023315 -88.62402344 130.80981445 C-92.0347494 127.36420851 -95.23420515 123.79039537 -98.3671875 120.08984375 C-100.08542365 118.21951493 -101.90988507 116.66927044 -103.875 115.0625 C-111.70926355 108.31716884 -116.97176543 99.9823895 -121.375 90.75 C-121.69662109 90.07855957 -122.01824219 89.40711914 -122.34960938 88.71533203 C-127.16145601 78.13282999 -128.55711571 68.21582771 -128.5 56.625 C-128.49856995 55.96430511 -128.49713989 55.30361023 -128.4956665 54.62289429 C-128.43851946 43.95496183 -127.49199727 35.03327716 -123 25.3125 C-122.55398438 24.31992187 -122.10796875 23.32734375 -121.6484375 22.3046875 C-111.83469562 2.62237836 -94.33003053 -10.43596731 -74.015625 -17.72265625 C-47.41744752 -26.2326949 -20.97901707 -16.86163989 0 0 Z " fill="#72BC66" transform="translate(384,283.6875)"/>
<path d="M0 0 C2.7894662 1.56907474 4.77745508 3.85764791 7 6.125 C8.09454031 7.21992919 9.19048742 8.31345324 10.28756714 9.40583801 C10.89014343 10.00696915 11.49271973 10.60810028 12.11355591 11.22744751 C12.75783539 11.87015594 13.40211487 12.51286438 14.06591797 13.17504883 C21.11643124 20.20919015 28.16437085 27.24590453 35.21087456 34.28406239 C39.46754582 38.5355131 43.7251477 42.78602318 47.98486328 47.03442383 C52.11660275 51.15526218 56.24586218 55.27857095 60.37344742 59.40357018 C61.94094623 60.96923 63.50932078 62.5340136 65.07860947 64.09787941 C67.2798646 66.29182629 69.47792015 68.48893323 71.67529297 70.68676758 C72.31552399 71.32340332 72.955755 71.96003906 73.61538696 72.6159668 C77.3920621 76.40117781 80.97560644 80.30362433 84.46039867 84.35955334 C86.6292035 86.84650185 88.93736799 89.17455825 91.27734375 91.5 C92.20224609 92.42167969 93.12714844 93.34335937 94.08007812 94.29296875 C95.03249568 95.23703607 95.98497031 96.18104582 96.9375 97.125 C97.9175531 98.10002386 98.8973724 99.0752828 99.87695312 100.05078125 C102.24902313 102.41116618 104.6234086 104.76916905 107 107.125 C105.1527997 111.15154194 102.47493371 113.84093076 99.3125 116.875 C95.98812932 120.08473721 92.78754907 123.32477615 89.78111267 126.83750916 C86.10433073 131.06014557 82.22772579 135.03842897 78.26391602 138.99047852 C77.15512085 140.10190216 77.15512085 140.10190216 76.02392578 141.23577881 C73.60307852 143.6609928 71.17863251 146.08257094 68.75390625 148.50390625 C67.05657095 150.20191607 65.35938405 151.90007425 63.66233826 153.59837341 C60.11432414 157.14785749 56.56451888 160.69553779 53.01342773 164.24194336 C48.4765115 168.77316276 43.94409986 173.30885716 39.41302586 177.8459177 C35.91200397 181.35056415 32.40859015 184.85281173 28.90446281 188.35435295 C27.23288648 190.02526526 25.5620442 191.69691227 23.89196968 193.36932564 C21.55222653 195.7116265 19.20927028 198.05066724 16.86547852 200.38891602 C16.18523117 201.07118759 15.50498383 201.75345917 14.80412292 202.45640564 C-4.0996981 221.27806293 -23.76859696 232.41267222 -51.09692383 232.43969727 C-73.99421614 232.02711145 -91.75902703 221.05052796 -107.4609375 204.97265625 C-121.93000609 188.74503932 -127.06008647 168.54688174 -126.40234375 147.2734375 C-125.25734889 127.97617218 -114.38667743 111.36969752 -101 98.125 C-96.70260305 93.83295443 -92.4138615 89.53226494 -88.1237793 85.23291016 C-80.19157772 77.28432971 -72.25681864 69.33830693 -64.32057476 61.39376259 C-59.52428349 56.59231778 -54.72893863 51.78993477 -49.93579102 46.98535156 C-45.28984952 42.32833191 -40.64125796 37.67396859 -35.99106789 33.02119064 C-34.22445086 31.2527327 -32.45871098 29.48339805 -30.6938839 27.71315384 C-28.21973414 25.23170856 -25.7424351 22.75344767 -23.2644043 20.27587891 C-22.54361191 19.55149124 -21.82281952 18.82710358 -21.08018494 18.08076477 C-17.09553575 14.1041083 -13.01551834 10.31186609 -8.72800922 6.66266441 C-7.11602376 5.22824343 -5.69394411 3.72510444 -4.25 2.125 C-2 0.125 -2 0.125 0 0 Z " fill="#FEC436" transform="translate(466,461.875)"/>
<path d="M0 0 C1.09965088 0.00161133 2.19930176 0.00322266 3.33227539 0.00488281 C12.43949996 0.1410207 20.3143693 1.44272688 28.9375 4.375 C30.29101562 4.79072266 30.29101562 4.79072266 31.671875 5.21484375 C50.28066706 11.64495183 63.73493233 27.41890254 72.50390625 44.41015625 C80.31992363 61.74538285 82.04886004 83.55534918 76.328125 101.78515625 C74.75973733 105.83388734 73.07160322 109.7764188 71.1875 113.6875 C70.88908203 114.30931152 70.59066406 114.93112305 70.28320312 115.57177734 C65.07456715 125.68281558 56.93464889 133.64077945 48.875 141.5 C42.08700581 148.09240319 42.08700581 148.09240319 35.71875 155.08203125 C30.62645043 161.02217897 24.99669972 166.46423975 19.45874023 171.98413086 C17.50454376 173.9329687 15.55574853 175.88709272 13.60742188 177.84179688 C12.34407046 179.10448738 11.08040882 180.36686758 9.81640625 181.62890625 C9.24531631 182.20202042 8.67422638 182.77513458 8.08583069 183.36561584 C5.14103136 186.29376211 2.13737004 189.10182692 -1.00610352 191.81640625 C-5.13472833 195.39058804 -8.99877151 199.18348635 -12.84375 203.05859375 C-13.54270386 203.75896255 -14.24165771 204.45933136 -14.96179199 205.18092346 C-17.16441539 207.38908458 -19.36351081 209.60072037 -21.5625 211.8125 C-23.06747508 213.32249814 -24.57268135 214.8322659 -26.078125 216.34179688 C-29.74225829 220.01687641 -33.4032348 223.69507356 -37.0625 227.375 C-43.1924149 222.30389066 -48.79306588 216.77978781 -54.40405273 211.14697266 C-55.42948773 210.12125511 -56.45514391 209.09575867 -57.48100281 208.07046509 C-60.24720576 205.30454746 -63.0103282 202.53557129 -65.77288318 199.76601076 C-68.66718583 196.86543029 -71.56434618 193.96770692 -74.4611969 191.06967163 C-79.93828283 185.5894854 -85.412816 180.10675645 -90.88642317 174.62309587 C-97.12148246 168.37683495 -103.35940274 162.13343453 -109.5975579 155.8902657 C-122.42237792 143.05501077 -135.24362366 130.21619089 -148.0625 117.375 C-144.87548276 113.60790008 -141.69276051 109.88047654 -138.20361328 106.38671875 C-137.50914093 105.68909424 -136.81466858 104.99146973 -136.09915161 104.27270508 C-135.00206375 103.17865356 -135.00206375 103.17865356 -133.8828125 102.0625 C-133.11121796 101.28994873 -132.33962341 100.51739746 -131.54464722 99.72143555 C-129.92047892 98.09659016 -128.29506077 96.47299324 -126.66845703 94.85058594 C-124.19840106 92.38587746 -121.73371693 89.91588845 -119.26953125 87.4453125 C-117.68261211 85.85905436 -116.09538268 84.27310657 -114.5078125 82.6875 C-113.78046906 81.95813232 -113.05312561 81.22876465 -112.30374146 80.47729492 C-109.03938636 77.22762321 -105.7531756 74.06743036 -102.25 71.07568359 C-97.30278865 66.80579019 -92.76906139 62.12984541 -88.19958115 57.46498489 C-86.0158876 55.23847187 -83.8222027 53.02190749 -81.62919807 50.80457115 C-77.56740806 46.6974938 -73.50954935 42.58672555 -69.46875 38.45898438 C-66.63722077 35.5673136 -63.79298376 32.68865899 -60.94055557 29.81760788 C-59.87007649 28.73556113 -58.8040877 27.64904898 -57.74319077 26.55760574 C-41.75202607 10.11789124 -23.28893699 -0.03560727 0 0 Z " fill="#FEA43D" transform="translate(628.0625,327.625)"/>
<path d="M0 0 C2.446296 2.43765184 4.88426243 4.88070735 7.2890625 7.359375 C8.05992187 8.14828125 8.83078125 8.9371875 9.625 9.75 C10.38039063 10.52859375 11.13578125 11.3071875 11.9140625 12.109375 C14.46756605 14.6059082 17.21998573 16.7907752 20.0144043 19.01220703 C26.00218651 23.89529408 31.43577016 29.19669443 36.85546875 34.6953125 C37.85139008 35.69753167 38.84784671 36.69921914 39.84480286 37.70040894 C42.43850734 40.30725094 45.02654393 42.91963737 47.612854 45.53381348 C51.75909204 49.72360477 55.91235328 53.906405 60.06893349 58.08593369 C61.50256613 59.52962637 62.93264812 60.97676343 64.36235046 62.42434692 C68.88106303 66.97641143 73.43794386 71.39264538 78.33381653 75.53901672 C95.70396545 90.76993067 104.36056749 112.42769807 106.25390625 135.03125 C107.05299756 155.44674419 99.77030787 175.00566476 86 190 C84.89398437 191.26070312 84.89398437 191.26070312 83.765625 192.546875 C70.66060322 206.67974162 52.44777302 212.95530582 33.4765625 214.23828125 C20.12503448 214.49556222 8.66328577 212.10863241 -3.375 206.25 C-3.99246094 205.95158203 -4.60992188 205.65316406 -5.24609375 205.34570312 C-14.81337565 200.37924787 -22.60165028 192.69494157 -30.12158203 185.10546875 C-30.97160294 184.2557399 -31.82162384 183.40601105 -32.69740295 182.53053284 C-34.99583716 180.2309556 -37.28981339 177.92704702 -39.58177042 175.62101746 C-41.9897478 173.20041735 -44.40350613 170.78559489 -46.81661987 168.37011719 C-51.37127622 163.80927963 -55.92081644 159.24337473 -60.46847618 154.6755619 C-65.65202997 149.4695437 -70.84136005 144.26929926 -76.03114915 139.06949806 C-86.69380792 128.38601349 -97.34930204 117.69540973 -108 107 C-104.8407433 103.26728602 -101.69074053 99.5660541 -98.23291016 96.10351562 C-97.55845856 95.42591187 -96.88400696 94.74830811 -96.18911743 94.0501709 C-95.4795993 93.342677 -94.77008118 92.63518311 -94.0390625 91.90625 C-93.289664 91.15589478 -92.5402655 90.40553955 -91.76815796 89.63244629 C-90.19106802 88.05467943 -88.61272888 86.47816035 -87.03320312 84.90283203 C-84.63557506 82.51055147 -82.24332045 80.11299152 -79.8515625 77.71484375 C-78.31021627 76.17415853 -76.76855974 74.63378365 -75.2265625 73.09375 C-74.52109283 72.3862561 -73.81562317 71.67876221 -73.08877563 70.9498291 C-69.86056274 67.73656407 -66.60365527 64.61637383 -63.14599609 61.65039062 C-58.5016166 57.64013081 -54.19768041 53.31118545 -49.87966919 48.95483398 C-48.40068091 47.46285757 -46.91839498 45.97422447 -45.43530273 44.48632812 C-42.28734751 41.32705235 -39.1433673 38.16383977 -36 35 C-32.35185217 31.32809211 -28.70200656 27.65790443 -25.04788208 23.99194336 C-23.60134931 22.53902092 -22.15790833 21.08307719 -20.71459961 19.62695312 C-16.16689281 15.06245303 -11.58088504 10.62452102 -6.67163086 6.44897461 C-4.32265131 4.41287214 -2.16330207 2.23090526 0 0 Z " fill="#FEA53D" transform="translate(636,540)"/>
<path d="M0 0 C1.5272747 -0.01441132 1.5272747 -0.01441132 3.08540344 -0.02911377 C4.72765144 -0.03548859 4.72765144 -0.03548859 6.40307617 -0.04199219 C7.535009 -0.04769226 8.66694183 -0.05339233 9.83317566 -0.05926514 C12.22796699 -0.06870851 14.62277128 -0.07524648 17.01757812 -0.07910156 C20.67169999 -0.08880256 24.32525825 -0.11983117 27.97924805 -0.15136719 C30.30802076 -0.15789802 32.63679748 -0.16314818 34.96557617 -0.16699219 C36.59871513 -0.18551239 36.59871513 -0.18551239 38.2648468 -0.20440674 C45.39318594 -0.18358928 50.80626936 0.25019647 56.19604492 5.34863281 C60.29908519 12.18703326 60.15979366 19.48660251 60.07885742 27.22363281 C60.07602753 28.25552734 60.07319763 29.28742188 60.07028198 30.35058594 C60.05915744 33.62089013 60.03406718 36.89091249 60.00854492 40.16113281 C59.99850514 42.38899342 59.98938104 44.61685835 59.98120117 46.84472656 C59.95924347 52.28362353 59.92584352 57.72235802 59.88354492 63.16113281 C60.81529541 63.15114006 60.81529541 63.15114006 61.76586914 63.14094543 C68.25507408 63.07436231 74.74418131 63.02923701 81.23364258 62.99633789 C83.65262802 62.98129002 86.07158635 62.96084693 88.49047852 62.93481445 C91.97573555 62.89825581 95.46063052 62.88136592 98.94604492 62.86816406 C100.02031738 62.85268021 101.09458984 62.83719635 102.20141602 62.82124329 C108.47958927 62.81984921 113.2088384 63.3933305 118.88354492 66.16113281 C123.2069565 71.26054134 123.99481934 75.88091597 124.04467773 82.39111328 C124.05428528 83.40922089 124.06389282 84.42732849 124.0737915 85.47628784 C124.08016632 87.11079391 124.08016632 87.11079391 124.08666992 88.77832031 C124.09237 89.9088382 124.09807007 91.03935608 124.10394287 92.20413208 C124.11337726 94.59294706 124.11992064 96.98177497 124.1237793 99.37060547 C124.1334909 103.01585654 124.16453234 106.66054506 124.19604492 110.30566406 C124.20257491 112.62987948 124.2078254 114.95409891 124.21166992 117.27832031 C124.22401672 118.36394257 124.23636353 119.44956482 124.24908447 120.56808472 C124.22763743 127.88893784 123.60979394 132.68285151 118.9921875 138.57421875 C113.9074316 141.16990817 108.76421445 140.64849836 103.14526367 140.55175781 C101.90935989 140.54609802 100.67345612 140.54043823 99.40010071 140.53460693 C96.12662894 140.51603566 92.85395414 140.48014636 89.58074951 140.43579102 C86.23579244 140.39474984 82.89080056 140.3769187 79.5456543 140.35644531 C72.99130723 140.31236714 66.43749123 140.24544515 59.88354492 140.16113281 C59.89353767 141.09621422 59.89353767 141.09621422 59.9037323 142.05018616 C59.97025277 148.55545886 60.01541491 155.06063446 60.04833984 161.56616211 C60.06339901 163.9919833 60.08385055 166.4177774 60.10986328 168.84350586 C60.14637195 172.33616843 60.16330046 175.82847006 60.17651367 179.32128906 C60.19199753 180.40072281 60.20748138 181.48015656 60.22343445 182.59230042 C60.22476331 188.57721216 59.82782993 192.90243911 56.88354492 198.16113281 C52.00878227 203.03589547 47.01527737 204.26591126 40.27026367 204.39160156 C38.03714589 204.38941865 35.80401543 204.37437174 33.57104492 204.34863281 C32.38857178 204.34001221 31.20609863 204.3313916 29.98779297 204.32250977 C26.28590782 204.28586231 22.58500939 204.22752679 18.88354492 204.16113281 C17.70308594 204.14179688 16.52262695 204.12246094 15.30639648 204.10253906 C11.93539219 204.03816717 8.56615025 203.94910077 5.19604492 203.84863281 C4.17663818 203.82631592 3.15723145 203.80399902 2.10693359 203.78100586 C-3.92233889 203.55788601 -8.63597277 202.7446096 -14.11645508 200.16113281 C-17.609041 195.7672344 -18.24356154 191.51214219 -18.22998047 186.02539062 C-18.22986717 184.49425629 -18.22986717 184.49425629 -18.22975159 182.93218994 C-18.2245903 181.83727234 -18.21942902 180.74235474 -18.21411133 179.61425781 C-18.21269638 178.48791931 -18.21128143 177.36158081 -18.20982361 176.20111084 C-18.20422707 172.60442446 -18.19167518 169.00780037 -18.17895508 165.41113281 C-18.17393963 162.97233163 -18.1693768 160.53352947 -18.1652832 158.09472656 C-18.15425878 152.11684073 -18.13752406 146.13899122 -18.11645508 140.16113281 C-18.76711945 140.16779465 -19.41778381 140.17445648 -20.08816528 140.18132019 C-26.86902926 140.24776445 -33.64980051 140.29297134 -40.4309082 140.32592773 C-42.96056882 140.34100067 -45.49020337 140.36146242 -48.01977539 140.38745117 C-51.65883831 140.42389897 -55.29755523 140.44087451 -58.93676758 140.45410156 C-60.06511017 140.46958542 -61.19345276 140.48506927 -62.35598755 140.50102234 C-72.34464974 140.50315628 -72.34464974 140.50315628 -77.11645508 137.16113281 C-80.4381667 132.85188531 -82.1672779 129.34546788 -82.43286133 123.93457031 C-82.47499756 123.07951904 -82.51713379 122.22446777 -82.56054688 121.34350586 C-82.59962158 120.41707275 -82.63869629 119.49063965 -82.67895508 118.53613281 C-82.71996338 117.57425049 -82.76097168 116.61236816 -82.80322266 115.62133789 C-83.09740708 108.03162328 -83.2534873 100.44374945 -83.30395508 92.84863281 C-83.31692627 91.81851074 -83.32989746 90.78838867 -83.34326172 89.72705078 C-83.36170347 74.66136787 -83.36170347 74.66136787 -78.86645508 68.78613281 C-72.49919417 62.70829286 -66.7597346 62.74845176 -58.37426758 62.86816406 C-56.68900467 62.87453133 -56.68900467 62.87453133 -54.96969604 62.88102722 C-51.39336845 62.89777391 -47.81761139 62.93541985 -44.24145508 62.97363281 C-41.81177574 62.98868478 -39.38208753 63.00237229 -36.95239258 63.01464844 C-31.00688654 63.04766435 -25.06171158 63.09782431 -19.11645508 63.16113281 C-19.12169189 62.25049072 -19.12692871 61.33984863 -19.13232422 60.40161133 C-19.37086053 12.64301826 -19.37086053 12.64301826 -15.11645508 5.16113281 C-10.1998009 1.08135594 -6.23698524 0.04764732 0 0 Z " fill="#013158" transform="translate(752.116455078125,147.8388671875)"/>
<path d="M0 0 C1.73678207 0.20867824 3.473749 0.41582642 5.2109375 0.62109375 C43.09585613 5.39861667 82.20621889 16.84029563 116.0625 34.4375 C116.83585693 34.8382373 117.60921387 35.23897461 118.40600586 35.65185547 C122.76807475 38.02170783 126.05810447 40.00143386 127.6171875 44.96484375 C128.08297182 48.52879955 128.21528772 50.50483824 126.75 53.875 C124.75720275 56.29482524 123.08497226 57.79609271 119.94360352 58.38647461 C112.21543966 58.64124924 106.73094199 56.00595657 99.9375 52.5625 C56.42694025 31.57938633 6.42323646 20.11340498 -41.9453125 19.76171875 C-43.06157013 19.75197021 -44.17782776 19.74222168 -45.32791138 19.73217773 C-69.89080779 19.56184898 -93.75281185 19.8781125 -118 24 C-119.76633789 24.28085449 -119.76633789 24.28085449 -121.56835938 24.56738281 C-186.3690762 34.91476699 -249.55749798 63.20045432 -299.91552734 105.28027344 C-301.42314508 106.52408456 -302.94641524 107.74900462 -304.47900391 108.96191406 C-311.42652042 114.50038856 -317.7679224 120.45767818 -324.01660156 126.75585938 C-325.62347307 128.37346287 -327.24078494 129.98006913 -328.859375 131.5859375 C-335.352046 138.0699384 -341.2954134 144.80132112 -347 152 C-348.08401649 153.30585306 -349.17211988 154.60833223 -350.265625 155.90625 C-358.53746002 165.8253902 -365.91094905 176.20956545 -373 187 C-373.43376953 187.65371582 -373.86753906 188.30743164 -374.31445312 188.98095703 C-404.52041807 234.73270187 -423.92160109 286.90141273 -432 341 C-432.16226074 341.98774414 -432.32452148 342.97548828 -432.49169922 343.99316406 C-442.6751243 406.85926196 -433.67533793 477.97579878 -407 535.8125 C-404.42389247 541.46853724 -402.87608565 545.76738405 -404 552 C-405.79393668 554.87029869 -406.98263276 556.49131638 -410 558 C-413.9156779 558.5400935 -416.50159106 558.75346939 -420.05859375 556.96484375 C-430.89865919 548.70272759 -434.89291485 531.44955902 -439 518.9375 C-439.25701691 518.15965149 -439.51403381 517.38180298 -439.77883911 516.5803833 C-446.71832099 495.47313896 -451.58934847 474.15867586 -454.875 452.1875 C-454.97900116 451.49678406 -455.08300232 450.80606812 -455.19015503 450.09442139 C-460.88048715 411.66209434 -460.65981731 370.2532084 -454 332 C-453.81276367 330.89108398 -453.62552734 329.78216797 -453.43261719 328.63964844 C-447.31886372 293.25590425 -435.54045889 259.74222408 -421 227 C-420.62020996 226.14116211 -420.24041992 225.28232422 -419.84912109 224.39746094 C-405.06717039 191.2758022 -384.7198005 161.3276666 -361 134 C-360.38898438 133.2884375 -359.77796875 132.576875 -359.1484375 131.84375 C-357.44980929 129.87945955 -355.73073002 127.93607087 -354 126 C-353.2265625 125.13375 -352.453125 124.2675 -351.65625 123.375 C-341.64790965 112.30695302 -331.39314092 101.33750612 -319.6484375 92.08984375 C-316.84704795 89.87930775 -314.14810268 87.57072147 -311.4375 85.25 C-255.98165797 39.03679831 -185.98765972 10.60632121 -115 0 C-113.91847656 -0.16516113 -112.83695312 -0.33032227 -111.72265625 -0.50048828 C-75.26233443 -5.79117424 -36.45430029 -4.95802349 0 0 Z " fill="#023157" transform="translate(568,116)"/>
<path d="M0 0 C5.27999242 3.6629508 7.93148656 7.63581893 10.8125 13.3125 C11.44925659 14.54734131 11.44925659 14.54734131 12.09887695 15.80712891 C17.29694574 26.18782762 21.17335225 37.05706602 25 48 C25.31565918 48.88413574 25.63131836 49.76827148 25.95654297 50.67919922 C36.63478181 80.65010235 42.98680434 111.37387813 46 143 C46.08365814 143.86890366 46.16731628 144.73780731 46.25350952 145.63304138 C46.89916851 152.75509377 47.1725659 159.81541723 47.203125 166.96484375 C47.21357849 168.62042297 47.21357849 168.62042297 47.22424316 170.30944824 C47.24153931 173.85217141 47.24796298 177.39473637 47.25 180.9375 C47.25100708 182.14697296 47.25201416 183.35644592 47.25305176 184.60256958 C47.24290181 202.60603931 46.75235414 220.18087964 44 238 C43.86078125 238.96035156 43.7215625 239.92070313 43.578125 240.91015625 C39.98269722 265.37903972 34.16275226 289.65783947 26 313 C25.52554443 314.38517822 25.52554443 314.38517822 25.04150391 315.79833984 C19.0357607 333.19397949 11.31753356 349.61896097 3 366 C2.5767041 366.84191895 2.1534082 367.68383789 1.71728516 368.55126953 C-3.74112623 379.29201452 -10.34557573 389.2879338 -17 399.3125 C-17.41920715 399.94525848 -17.83841431 400.57801697 -18.27032471 401.22994995 C-26.80140079 414.06495664 -36.13522656 426.15572808 -46 438 C-46.78761719 438.97453125 -47.57523438 439.9490625 -48.38671875 440.953125 C-55.19392801 449.24773124 -62.6688899 456.85725111 -70.25 464.4375 C-70.76942169 464.95782806 -71.28884338 465.47815613 -71.82400513 466.01425171 C-77.70260697 471.89169414 -83.65323035 477.6240914 -90 483 C-91.00964362 483.87699548 -92.01879072 484.75456305 -93.02734375 485.6328125 C-111.98844448 501.87064105 -132.24854177 516.70717454 -154 529 C-154.84594727 529.47904785 -155.69189453 529.9580957 -156.56347656 530.45166016 C-201.739289 555.85613191 -249.26232297 571.93044085 -300.375 580.3125 C-301.82555786 580.55178223 -301.82555786 580.55178223 -303.30541992 580.79589844 C-315.37588566 582.67410229 -327.4905012 583.15884716 -339.69140625 583.203125 C-340.95677719 583.20882507 -342.22214813 583.21452515 -343.52586365 583.22039795 C-346.19232744 583.22978052 -348.85868072 583.2367104 -351.52514648 583.24023438 C-355.50065513 583.2467111 -359.47578426 583.28090425 -363.45117188 583.3125 C-397.92883257 583.45487742 -430.80634437 578.14870801 -464.1875 569.9375 C-465.06483795 569.72398895 -465.9421759 569.51047791 -466.84609985 569.29049683 C-469.37293562 568.6720654 -471.89582807 568.03962265 -474.41796875 567.40234375 C-475.16589691 567.22010254 -475.91382507 567.03786133 -476.68441772 566.85009766 C-482.87824702 565.25475576 -488.74242809 563.14179899 -493.4375 558.6875 C-495.39533871 555.32001742 -495.9304818 552.89301905 -496 549 C-494.53554086 545.7781899 -492.74380184 543.23475647 -490 541 C-482.04928861 539.5531811 -474.70529588 542.00187835 -467.25 544.5 C-386.89983026 569.66038291 -301.44067505 565.37617654 -187 521 C-186.1455127 520.57895996 -185.29102539 520.15791992 -184.41064453 519.72412109 C-159.43891099 507.30577253 -136.27655251 492.0130813 -115 474 C-113.95748863 473.13096145 -112.91449472 472.26250152 -111.87109375 471.39453125 C-95.60030891 457.81135301 -79.18434626 443.38728332 -66.08984375 426.6484375 C-64.15323651 424.19419505 -62.13437065 421.83325758 -60.0793457 419.47802734 C-53.63454275 412.05536883 -47.9632674 404.17754752 -42.41699219 396.06835938 C-41.11481464 394.16759297 -39.79754469 392.27834103 -38.4765625 390.390625 C-15.01983879 356.49083936 1.94748957 317.89026841 12 278 C12.30566895 276.80294434 12.61133789 275.60588867 12.92626953 274.37255859 C16.87555307 258.7555814 20.1076532 243.28411968 21.66772461 227.24145508 C21.9190479 224.78971418 22.20066262 222.35006005 22.50610352 219.9050293 C24.0708724 206.98643008 24.35845262 194.19158829 24.3125 181.1875 C24.31067719 180.11384186 24.30885437 179.04018372 24.30697632 177.93399048 C24.25715939 160.44954536 23.57791578 143.31856396 21 126 C20.82839355 124.83887695 20.65678711 123.67775391 20.47998047 122.48144531 C14.98201554 86.58499153 4.57366361 50.83673119 -12.29296875 18.53125 C-14.43674528 14.09652692 -15.05606212 10.80996359 -14 6 C-10.40549957 -0.34011515 -6.96578331 -1.62534944 0 0 Z " fill="#023057" transform="translate(868,331)"/>
<path d="M0 0 C1.26651146 -0.00855011 1.26651146 -0.00855011 2.55860901 -0.01727295 C4.33959714 -0.02669296 6.12060247 -0.03324497 7.90161133 -0.03710938 C10.61635809 -0.04683007 13.33035202 -0.07788747 16.04492188 -0.109375 C17.77994345 -0.11590453 19.5149704 -0.1211552 21.25 -0.125 C22.05642441 -0.1373468 22.86284882 -0.1496936 23.69371033 -0.16241455 C28.59891972 -0.14315169 31.93603415 0.4977121 36.19140625 3.203125 C40.66901511 8.91593631 40.33529655 15.65368899 40.25390625 22.578125 C40.24939453 23.31417969 40.24488281 24.05023437 40.24023438 24.80859375 C40.22855767 26.60680658 40.21062636 28.40497697 40.19140625 30.203125 C41.77438651 30.6834568 43.35780603 31.16234112 44.94140625 31.640625 C46.26398438 32.04087891 46.26398438 32.04087891 47.61328125 32.44921875 C48.4640625 32.69800781 49.31484375 32.94679688 50.19140625 33.203125 C50.85269531 33.491875 51.51398438 33.780625 52.1953125 34.078125 C54.4421214 34.43622716 54.4421214 34.43622716 56.671875 32.33203125 C57.56519531 31.48511719 58.45851563 30.63820313 59.37890625 29.765625 C63.68877308 26.076379 66.3249665 24.19849468 72.0234375 24.49609375 C77.58170597 26.30879031 81.80100935 30.50422875 85.8515625 34.5625 C86.36391953 35.0705719 86.87627655 35.5786438 87.40415955 36.10211182 C88.47973541 37.17198032 89.55274874 38.24443069 90.62329102 39.31933594 C92.24440291 40.94360316 93.87837618 42.55409164 95.51367188 44.1640625 C109.04430196 57.60828248 109.04430196 57.60828248 109.87890625 65.703125 C109.5901742 71.08658066 106.60918244 74.28950564 103.19140625 78.203125 C100.91077797 81.62406742 100.97215618 82.88499722 101.06640625 86.890625 C101.08445312 87.88449219 101.1025 88.87835937 101.12109375 89.90234375 C101.14429688 90.66160156 101.1675 91.42085937 101.19140625 92.203125 C102.36058594 92.16832031 103.52976562 92.13351562 104.734375 92.09765625 C106.28253766 92.06950784 107.83071593 92.04220881 109.37890625 92.015625 C110.14783203 91.99048828 110.91675781 91.96535156 111.70898438 91.93945312 C116.34016288 91.87982422 119.60331694 91.95918635 123.19140625 95.203125 C126.88023664 100.79038342 127.78089314 105.71241258 127.6875 112.3046875 C127.68895523 113.14478363 127.69041046 113.98487976 127.69190979 114.85043335 C127.69026046 116.61354059 127.67880836 118.3766637 127.65795898 120.13964844 C127.62890654 122.82809849 127.63738947 125.51458396 127.65039062 128.203125 C127.64415474 129.92448868 127.63576498 131.64584619 127.625 133.3671875 C127.62793564 134.16420074 127.63087128 134.96121399 127.63389587 135.78237915 C127.55222346 140.64076912 126.84618442 143.98166515 124.19140625 148.203125 C120.23300343 151.42243645 115.90569653 152.0788353 111.00390625 152.890625 C110.28009766 153.02017578 109.55628906 153.14972656 108.81054688 153.28320312 C103.578187 154.203125 103.578187 154.203125 101.19140625 154.203125 C100.11615431 156.85541312 99.09684474 159.48680954 98.19140625 162.203125 C98.90167969 162.82960938 99.61195313 163.45609375 100.34375 164.1015625 C101.72240234 165.32746094 101.72240234 165.32746094 103.12890625 166.578125 C104.04542969 167.39023437 104.96195313 168.20234375 105.90625 169.0390625 C108.97599048 171.94613297 109.41617341 173.64634366 109.62890625 177.765625 C109.68949219 178.57128906 109.75007812 179.37695312 109.8125 180.20703125 C107.88721716 189.49440195 99.32861953 196.5536218 92.87890625 202.953125 C91.97978516 203.87222656 91.08066406 204.79132813 90.15429688 205.73828125 C77.64962734 218.23390909 77.64962734 218.23390909 69.00390625 218.765625 C63.77883655 217.99471308 60.97620162 215.84880134 57.13671875 212.30859375 C52.95791973 208.40660399 52.95791973 208.40660399 47.61328125 207.19921875 C45.37216843 207.71016428 43.31358065 208.32515687 41.19140625 209.203125 C41.15402344 210.193125 41.11664063 211.183125 41.078125 212.203125 C40.29289288 229.19855982 40.29289288 229.19855982 35.19140625 234.140625 C30.69835005 236.52756111 26.42030406 236.38091405 21.46484375 236.40625 C20.60259186 236.41195007 19.74033997 236.41765015 18.85195923 236.42352295 C17.02452825 236.43297066 15.19708025 236.43950602 13.36962891 236.44335938 C10.59767085 236.45301608 7.82647002 236.48402085 5.0546875 236.515625 C3.27474396 236.52216043 1.49479514 236.52740878 -0.28515625 236.53125 C-1.10424469 236.5435968 -1.92333313 236.5559436 -2.76724243 236.56866455 C-9.09248753 236.54465004 -16.02226726 235.81530609 -20.80859375 231.328125 C-23.0083079 226.65373244 -22.91870865 221.98541935 -22.87109375 216.890625 C-22.86207031 215.63636719 -22.85304688 214.38210938 -22.84375 213.08984375 C-22.83214844 212.13722656 -22.82054687 211.18460938 -22.80859375 210.203125 C-26.5031567 208.9946231 -29.90781638 208.18804468 -33.80859375 208.203125 C-36.56827864 209.64530972 -38.56644675 211.28523061 -40.8359375 213.40625 C-44.49959078 216.74343913 -47.67924021 217.74547817 -52.69726562 217.56274414 C-60.9439682 216.15809649 -67.39081628 208.08221109 -73.01904297 202.38378906 C-74.55897735 200.82773738 -76.11434756 199.28841968 -77.671875 197.75 C-78.6715364 196.74835649 -79.67026697 195.74578293 -80.66796875 194.7421875 C-81.55967773 193.84709473 -82.45138672 192.95200195 -83.37011719 192.02978516 C-86.84619732 188.00034425 -89.44839515 184.14819744 -90.43359375 178.828125 C-89.43358399 173.02806839 -85.99350886 168.58799885 -82.05859375 164.29296875 C-80.31018108 161.36984132 -80.88205821 159.72044001 -81.62109375 156.453125 C-81.83378906 155.46828125 -82.04648438 154.4834375 -82.265625 153.46875 C-82.53439453 152.34726562 -82.53439453 152.34726562 -82.80859375 151.203125 C-83.82179687 151.16574219 -84.835 151.12835937 -85.87890625 151.08984375 C-87.23050314 151.02414112 -88.58206404 150.95769529 -89.93359375 150.890625 C-90.93132812 150.85678711 -90.93132812 150.85678711 -91.94921875 150.82226562 C-96.57514142 150.57282862 -99.86303893 149.62043105 -103.80859375 147.203125 C-109.41432765 140.68835317 -108.96536495 132.71084128 -109.01171875 124.5390625 C-109.01741882 123.74335846 -109.0231189 122.94765442 -109.0289917 122.12783813 C-109.0383702 120.45893659 -109.04494691 118.79001713 -109.04882812 117.12109375 C-109.058595 114.57779979 -109.08970947 112.03529464 -109.12109375 109.4921875 C-109.12761977 107.86198391 -109.13287181 106.23177461 -109.13671875 104.6015625 C-109.14906555 103.84829681 -109.16141235 103.09503113 -109.1741333 102.31893921 C-109.15398479 97.52203782 -108.42771092 94.23532318 -105.80859375 90.203125 C-103.01059175 87.49441325 -100.88288548 86.79264931 -97.04296875 86.47265625 C-95.70878906 86.35180664 -95.70878906 86.35180664 -94.34765625 86.22851562 C-93.42726562 86.15826172 -92.506875 86.08800781 -91.55859375 86.015625 C-90.62273437 85.93376953 -89.686875 85.85191406 -88.72265625 85.76757812 C-86.41869728 85.56774495 -84.11440759 85.3800311 -81.80859375 85.203125 C-80.41586894 81.98044716 -80.41586894 81.98044716 -79.80859375 78.203125 C-81.40327819 75.37845789 -81.40327819 75.37845789 -83.99609375 73.078125 C-91.2354776 65.94134659 -91.2354776 65.94134659 -92.37109375 60.515625 C-89.87210333 45.79934811 -71.91924709 31.07954849 -60.93359375 21.765625 C-56.7537982 19.67572723 -53.39570351 19.39996679 -48.80859375 20.203125 C-45.6595042 21.77766977 -43.48560685 23.4519403 -41.1328125 26.0625 C-39.42896297 27.95146844 -37.83763342 29.66583949 -35.80859375 31.203125 C-32.2195429 31.36897691 -32.2195429 31.36897691 -28.80859375 30.203125 C-26.81134798 29.85366766 -24.81161953 29.5177658 -22.80859375 29.203125 C-22.86080078 27.60984375 -22.86080078 27.60984375 -22.9140625 25.984375 C-23.2604014 11.18625826 -23.2604014 11.18625826 -19.80859375 5.203125 C-13.67799847 0.0054464 -7.64948004 0.04021202 0 0 Z M-4.80859375 20.203125 C-5.01841869 27.3078224 -5.01841869 27.3078224 -5.1965332 34.41333008 C-5.24620239 35.74207153 -5.24620239 35.74207153 -5.296875 37.09765625 C-5.32305908 38.00362549 -5.34924316 38.90959473 -5.3762207 39.84301758 C-5.89035683 42.6494286 -6.54487447 43.51230411 -8.80859375 45.203125 C-11.35461062 46.1156861 -13.83701429 46.91099778 -16.43359375 47.640625 C-21.10090777 49.00399261 -25.5080425 50.39281857 -29.87109375 52.578125 C-33.92899729 54.44568288 -36.45635458 54.7066258 -40.80859375 53.203125 C-43.71508382 51.09729068 -46.26532803 48.72984018 -48.80859375 46.203125 C-49.63359375 45.39875 -50.45859375 44.594375 -51.30859375 43.765625 C-51.80359375 43.25 -52.29859375 42.734375 -52.80859375 42.203125 C-59.74738064 45.31570993 -64.99398997 51.76598112 -68.80859375 58.203125 C-68.52258116 63.69992949 -65.11604537 66.66740719 -61.62109375 70.60546875 C-59.49629609 73.65070678 -58.97731609 75.50529362 -58.80859375 79.203125 C-59.48046875 82.3515625 -59.48046875 82.3515625 -60.55859375 85.578125 C-60.93628906 86.70863281 -61.31398438 87.83914063 -61.703125 89.00390625 C-62.06792969 90.05964844 -62.43273437 91.11539063 -62.80859375 92.203125 C-63.05996094 93.02167969 -63.31132812 93.84023438 -63.5703125 94.68359375 C-65.08733628 99.35743001 -66.61631622 101.6562621 -70.80859375 104.203125 C-74.07934088 104.81668665 -77.29947071 104.89770335 -80.62109375 104.953125 C-85.16890625 105.076875 -85.16890625 105.076875 -89.80859375 105.203125 C-89.80859375 113.783125 -89.80859375 122.363125 -89.80859375 131.203125 C-87.62234375 131.30625 -85.43609375 131.409375 -83.18359375 131.515625 C-77.97907425 131.7611212 -74.22334392 132.33796479 -69.80859375 135.203125 C-67.12112527 138.71060057 -66.04071827 142.35141321 -64.87109375 146.578125 C-63.7552807 150.39946158 -62.69082996 153.7727466 -60.55859375 157.140625 C-58.51454034 160.71771847 -57.90365911 162.1720525 -58.80859375 166.203125 C-61.34750041 169.74138853 -64.29885266 172.85015161 -67.5390625 175.75390625 C-69.13806131 177.2581181 -69.13806131 177.2581181 -68.80859375 180.203125 C-67.20564802 181.9311645 -65.52511584 183.58785181 -63.80859375 185.203125 C-62.88422432 186.1736311 -61.96628253 187.15029764 -61.0546875 188.1328125 C-60.11855307 189.11464387 -59.18235481 190.09641438 -58.24609375 191.078125 C-57.54323242 191.84382813 -57.54323242 191.84382813 -56.82617188 192.625 C-54.24098412 195.43503389 -54.24098412 195.43503389 -50.6796875 196.2421875 C-47.76892944 194.62577488 -45.94176066 192.29076825 -43.78515625 189.796875 C-41.12206179 187.64955773 -39.20277974 187.39877983 -35.80859375 187.203125 C-33.08984375 187.8046875 -33.08984375 187.8046875 -30.30859375 188.828125 C-29.27734375 189.20195313 -28.24609375 189.57578125 -27.18359375 189.9609375 C-26.06984375 190.37085938 -24.95609375 190.78078125 -23.80859375 191.203125 C-22.57109375 191.61304688 -21.33359375 192.02296875 -20.05859375 192.4453125 C-18.82109375 192.86039063 -17.58359375 193.27546875 -16.30859375 193.703125 C-14.5915625 194.27546875 -14.5915625 194.27546875 -12.83984375 194.859375 C-9.54491952 196.32001151 -7.86367723 197.238495 -5.80859375 200.203125 C-5.41170203 203.0417636 -5.20376805 205.55361345 -5.18359375 208.390625 C-5.13763484 211.01717662 -5.01605405 213.58023411 -4.80859375 216.203125 C-2.19908139 217.50788118 -0.2815809 217.31614072 2.63671875 217.30078125 C3.71308594 217.29755859 4.78945313 217.29433594 5.8984375 217.29101562 C7.02636719 217.28263672 8.15429688 217.27425781 9.31640625 217.265625 C10.45207031 217.26111328 11.58773437 217.25660156 12.7578125 217.25195312 C15.56906263 217.24014115 18.38020855 217.22367007 21.19140625 217.203125 C21.25199219 215.93855469 21.31257813 214.67398438 21.375 213.37109375 C21.45941529 211.71092629 21.5440628 210.05077063 21.62890625 208.390625 C21.66822266 207.55724609 21.70753906 206.72386719 21.74804688 205.86523438 C21.78994141 205.06279297 21.83183594 204.26035156 21.875 203.43359375 C21.91165771 202.69520264 21.94831543 201.95681152 21.98608398 201.19604492 C22.19140625 199.203125 22.19140625 199.203125 23.19140625 196.203125 C25.13671875 195.23828125 25.13671875 195.23828125 28.19140625 194.203125 C29.73088162 193.64045125 31.26989815 193.07652139 32.80859375 192.51171875 C34.56073106 191.8867105 36.31334959 191.26304995 38.06640625 190.640625 C38.93910156 190.32416016 39.81179688 190.00769531 40.7109375 189.68164062 C50.46884066 186.22602229 50.46884066 186.22602229 55.19140625 186.203125 C58.140625 188.00390625 58.140625 188.00390625 60.87890625 190.515625 C63.91509129 193.25119766 66.49791304 195.47224405 70.19140625 197.203125 C70.66562012 196.72367432 71.13983398 196.24422363 71.62841797 195.75024414 C73.7718096 193.58610662 75.91905015 191.42582853 78.06640625 189.265625 C78.81277344 188.51087891 79.55914062 187.75613281 80.328125 186.97851562 C81.40126953 185.90053711 81.40126953 185.90053711 82.49609375 184.80078125 C83.15593262 184.13570557 83.81577148 183.47062988 84.49560547 182.78540039 C86.19140625 181.203125 86.19140625 181.203125 88.19140625 180.203125 C88.19140625 179.543125 88.19140625 178.883125 88.19140625 178.203125 C86.50334993 176.53434779 86.50334993 176.53434779 84.37890625 174.828125 C81.55985569 172.49688829 79.15235461 170.31466136 77.19140625 167.203125 C77.19140625 161.48857437 79.48267743 157.07277129 81.9375 151.98828125 C83.09202488 149.42386928 83.88468279 146.97067672 84.62890625 144.265625 C85.72897035 140.95360405 86.83730803 138.6990905 90.03125 136.91015625 C95.24352422 135.20414968 100.7697036 134.81690266 106.19140625 134.203125 C106.19140625 126.613125 106.19140625 119.023125 106.19140625 111.203125 C101.48057221 111.07251985 101.48057221 111.07251985 96.76879883 110.99536133 C93.19264389 110.82681601 91.27334948 110.26259627 88.37109375 108.15625 C85.74019581 104.59180762 84.63403834 101.37764944 83.50390625 97.140625 C82.33198282 92.98010719 81.13165748 89.07508009 79.19140625 85.203125 C78.40066596 81.15818428 78.3960596 77.6307346 80.4296875 73.98046875 C81.94194435 71.97288211 83.53138399 70.08933035 85.19140625 68.203125 C86.19736292 66.87428003 87.19815503 65.54149333 88.19140625 64.203125 C85.61530363 61.73711989 83.02932476 59.28172248 80.44140625 56.828125 C79.71179688 56.12945313 78.9821875 55.43078125 78.23046875 54.7109375 C77.16699219 53.70546875 77.16699219 53.70546875 76.08203125 52.6796875 C75.43266602 52.06174316 74.78330078 51.44379883 74.11425781 50.80712891 C72.22110324 49.22789763 70.43564568 48.20299043 68.19140625 47.203125 C67.56492187 47.76902344 66.9384375 48.33492187 66.29296875 48.91796875 C65.06707031 50.01818359 65.06707031 50.01818359 63.81640625 51.140625 C62.59824219 52.23697266 62.59824219 52.23697266 61.35546875 53.35546875 C58.89450026 55.45662055 57.796071 56.13422767 54.5859375 56.5 C50.11015371 56.10856206 46.85190071 54.45839819 42.87890625 52.453125 C41.37153708 51.71393902 39.86372823 50.97564892 38.35546875 50.23828125 C37.6377832 49.8839502 36.92009766 49.52961914 36.18066406 49.16455078 C33.74029093 47.985097 31.25668806 46.93005393 28.75390625 45.890625 C25.19140625 44.203125 25.19140625 44.203125 23.19140625 41.203125 C22.91390403 38.55398012 22.72698537 35.98343772 22.62890625 33.328125 C22.43661896 28.83596666 22.07856169 24.63890219 21.19140625 20.203125 C12.61140625 20.203125 4.03140625 20.203125 -4.80859375 20.203125 Z " fill="#023059" transform="translate(254.80859375,658.796875)"/>
<path d="M0 0 C11.55 0 23.1 0 35 0 C35.01417969 3.91230469 35.02835938 7.82460937 35.04296875 11.85546875 C35.0735832 15.64502601 35.11267388 19.43440759 35.15258789 23.22387695 C35.17578322 25.85727729 35.19016716 28.4907706 35.19555664 31.12426758 C35.20483428 34.91025843 35.24580377 38.69478375 35.29296875 42.48046875 C35.2890361 43.65772018 35.28510345 44.83497162 35.28105164 46.04789734 C35.36772055 52.46443095 35.36772055 52.46443095 38.04418945 58.1574707 C45.11315987 62.5639727 52.63231656 62.32530519 60.71875 62.4140625 C61.81723267 62.43342865 62.91571533 62.4527948 64.04748535 62.4727478 C67.53157967 62.53218863 71.01570766 62.57878667 74.5 62.625 C76.87240968 62.66321244 79.24480597 62.70226605 81.6171875 62.7421875 C87.41138586 62.83943279 93.20545383 62.91928418 99 63 C99 74.55 99 86.1 99 98 C95.08769531 97.97679687 91.17539062 97.95359375 87.14453125 97.9296875 C83.35506515 97.91408964 79.56560262 97.90194563 75.77612305 97.89013672 C73.14264322 97.8800797 70.50917455 97.8664324 67.87573242 97.84912109 C64.090304 97.8248601 60.30502324 97.8135138 56.51953125 97.8046875 C54.7536541 97.78920364 54.7536541 97.78920364 52.95210266 97.77340698 C51.85133896 97.77325592 50.75057526 97.77310486 49.61645508 97.77294922 C48.65048904 97.768508 47.68452301 97.76406677 46.68928528 97.75949097 C43.7492742 98.02242299 41.63416455 98.67993018 39 100 C34.88464067 105.43184545 35.52446545 111.88511119 35.48828125 118.3984375 C35.46135445 120.18358261 35.46135445 120.18358261 35.43388367 122.00479126 C35.3798301 125.79482513 35.34589971 129.58473338 35.3125 133.375 C35.27932268 135.94923621 35.24483264 138.52345585 35.20898438 141.09765625 C35.12164255 147.39845511 35.06152799 153.69868483 35 160 C23.12 160 11.24 160 -1 160 C-0.97679687 156.00390625 -0.95359375 152.0078125 -0.9296875 147.890625 C-0.91409495 144.02506834 -0.90194792 140.15951516 -0.89013672 136.29394531 C-0.88120097 133.60509625 -0.86727762 130.9163413 -0.84912109 128.22753906 C-0.82489244 124.36520687 -0.81352125 120.50301925 -0.8046875 116.640625 C-0.79436493 115.4363385 -0.78404236 114.232052 -0.77340698 112.99127197 C-0.77325592 111.87041199 -0.77310486 110.749552 -0.77294922 109.59472656 C-0.768508 108.60877502 -0.76406677 107.62282349 -0.75949097 106.60699463 C-1.01505833 103.8367754 -1.41400169 102.27840142 -3 100 C-6.17719272 97.77396417 -8.96916517 97.75638767 -12.77832031 97.77294922 C-13.9392218 97.77310028 -15.10012329 97.77325134 -16.29620361 97.77340698 C-17.54423767 97.78372955 -18.79227173 97.79405212 -20.078125 97.8046875 C-21.35983582 97.8075174 -22.64154663 97.81034729 -23.96209717 97.81326294 C-27.36189639 97.82088212 -30.76152346 97.84051566 -34.16125488 97.8626709 C-37.63352124 97.88316642 -41.10581553 97.89227256 -44.578125 97.90234375 C-51.38548717 97.92376334 -58.19273531 97.95787844 -65 98 C-65.02931979 93.85418181 -65.04690557 89.70839075 -65.0625 85.5625 C-65.07506836 83.81549805 -65.07506836 83.81549805 -65.08789062 82.03320312 C-65.10602151 75.59673798 -64.86649876 69.37934125 -64 63 C-63.30953079 62.98382629 -62.61906158 62.96765259 -61.90766907 62.95098877 C-54.720656 62.77886067 -47.534744 62.57985602 -40.34887695 62.36523438 C-37.66706192 62.28651261 -34.98525217 62.21732054 -32.30297852 62.15625 C-28.44733503 62.06490772 -24.5931001 61.94893214 -20.73828125 61.828125 C-19.53915604 61.80502258 -18.34003082 61.78192017 -17.10456848 61.75811768 C-10.69871679 61.56599994 -10.69871679 61.56599994 -4.82885742 59.26074219 C-1.63876246 55.31730615 -0.75429202 51.66900308 -0.68115234 46.65893555 C-0.66128265 45.6182341 -0.64141296 44.57753265 -0.62094116 43.5052948 C-0.60938995 42.3936647 -0.59783875 41.28203461 -0.5859375 40.13671875 C-0.56657135 38.98959915 -0.5472052 37.84247955 -0.5272522 36.66059875 C-0.46755533 33.0029744 -0.42110998 29.34531841 -0.375 25.6875 C-0.33681117 23.20506453 -0.29775892 20.72264218 -0.2578125 18.24023438 C-0.16023963 12.16022519 -0.08059066 6.0803529 0 0 Z " fill="#73BD66" transform="translate(756,170)"/>
<path d="M0 0 C9.66892443 8.23217662 17.95850416 18.12156373 20 31 C21.18307968 47.77672715 18.47712059 63.630261 7.0625 76.8125 C-4.11752878 86.97616253 -19.08497244 90.6662031 -33.7421875 90.30859375 C-46.24760195 89.63915686 -57.26486136 83.21748139 -65.8125 74.3125 C-76.22737126 62.049829 -78.98070536 48.74700372 -78.19091797 33.15771484 C-77.05872062 20.36185782 -69.30782803 9.12873751 -59.74609375 1.0078125 C-41.93396261 -12.01556645 -18.3039661 -13.03263578 0 0 Z " fill="#023059" transform="translate(293,739)"/>
<path d="M0 0 C8.11875212 4.7782239 12.30995122 10.50407242 15.25 19.32421875 C16.25871407 29.11370614 14.30613942 37.91069083 8.125 45.69921875 C2.27527812 51.77345021 -4.91090807 54.96663915 -13.3125 55.38671875 C-22.94789835 55.13965725 -29.73732886 51.24771942 -36.5625 44.57421875 C-41.44066769 37.32665532 -44.05252752 30.09634284 -42.75 21.32421875 C-40.47848306 12.08501503 -36.57143249 5.62196047 -28.5625 0.44921875 C-20.03209842 -4.63200665 -8.8714683 -4.15850077 0 0 Z " fill="#F8F7F6" transform="translate(277.75,753.67578125)"/>
<path d="M0 0 C0.66 0 1.32 0 2 0 C2 0.66 2 1.32 2 2 C2.99 2 3.98 2 5 2 C6.01966509 3.6547087 7.01426949 5.32485429 8 7 C10.05045174 9.35171218 12.27252434 11.52548298 14.4909668 13.71801758 C15.1448941 14.37223694 15.79882141 15.0264563 16.4725647 15.70050049 C18.62674084 17.85328767 20.78790569 19.99891135 22.94921875 22.14453125 C24.44752372 23.63910456 25.94538659 25.13412118 27.44282532 26.62956238 C31.3790278 30.5581405 35.32120015 34.48067449 39.26464844 38.40197754 C43.29008315 42.40692812 47.30983937 46.41756922 51.33007812 50.42773438 C59.21450673 58.29073417 67.10525422 66.14736004 75 74 C75.99 73.67 76.98 73.34 78 73 C77.01 74.98 77.01 74.98 76 77 C71.07108233 72.86327158 66.41838711 68.56697424 61.87133789 64.01660156 C60.86031006 63.01061165 60.86031006 63.01061165 59.82885742 61.98429871 C57.624162 59.7890262 55.42318474 57.59007386 53.22265625 55.390625 C51.68573704 53.85692129 50.14874351 52.32329205 48.61167908 50.78973389 C45.40332305 47.58734512 42.19701998 44.38291685 38.99194336 41.17724609 C34.87537893 37.06057946 30.75194463 32.9508678 26.62676334 28.84283829 C23.45706555 25.68422167 20.29188526 22.52110851 17.12798882 19.35668182 C15.6084754 17.83835169 14.08733284 16.32165022 12.56456184 14.80658722 C10.44592568 12.69768478 8.33364352 10.58261846 6.22290039 8.46582031 C5.27159492 7.52294411 5.27159492 7.52294411 4.30107117 6.5610199 C0 2.22832377 0 2.22832377 0 0 Z " fill="#F8BD39" transform="translate(515,478)"/>
<path d="M0 0 C0.33 0 0.66 0 1 0 C1.02527124 6.24795675 1.04283344 12.49590041 1.05493164 18.74389648 C1.05997298 20.87118014 1.06680591 22.99846031 1.07543945 25.12573242 C1.08751379 28.17627826 1.09323014 31.22677845 1.09765625 34.27734375 C1.10281754 35.23462875 1.10797882 36.19191376 1.11329651 37.1782074 C1.11340981 38.49946373 1.11340981 38.49946373 1.11352539 39.84741211 C1.115746 40.62684677 1.11796661 41.40628143 1.12025452 42.20933533 C1 44 1 44 0 45 C-2.86267567 45.07325168 -5.700719 45.09238205 -8.5625 45.0625 C-9.36880859 45.05798828 -10.17511719 45.05347656 -11.00585938 45.04882812 C-13.00393756 45.03700518 -15.00197783 45.01906914 -17 45 C-17 44.67 -17 44.34 -17 44 C-9.08 43.505 -9.08 43.505 -1 43 C-1.01740234 39.60074219 -1.01740234 39.60074219 -1.03515625 36.1328125 C-1.04298488 33.90527486 -1.04903992 31.67773883 -1.05493164 29.45019531 C-1.05991896 27.91796162 -1.06671122 26.38573258 -1.07543945 24.85351562 C-1.12174177 16.50820407 -1.04734171 8.29626585 0 0 Z " fill="#1C3054" transform="translate(734,168)"/>
<path d="M0 0 C5.40789875 4.51042712 10.42244104 9.28998268 15.3828125 14.28515625 C16.16010712 15.06386581 16.93740173 15.84257538 17.73825073 16.6448822 C20.20287708 19.11506516 22.66399487 21.5887098 25.125 24.0625 C26.78492345 25.72744567 28.44507756 27.39216141 30.10546875 29.05664062 C33.15133217 32.11064028 36.19588115 35.16593656 39.23876953 38.22290039 C42.15515591 41.15264889 45.07531339 44.07853836 48 47 C45 47 45 47 42.93086243 45.30508423 C42.1381041 44.51169647 41.34534576 43.71830872 40.52856445 42.90087891 C39.17750359 41.55916122 39.17750359 41.55916122 37.79914856 40.19033813 C36.82021692 39.20271931 35.84160198 38.21478649 34.86328125 37.2265625 C33.85916883 36.22193163 32.85453838 35.21781829 31.84941101 34.21420288 C29.74404783 32.10874993 27.64395465 29.99821829 25.54760742 27.88378906 C22.8557606 25.16924041 20.15296612 22.46591871 17.44637775 19.76607704 C15.37084127 17.69387637 13.30031391 15.61673065 11.23137474 13.53794479 C10.23631836 12.53903053 9.23989943 11.5414717 8.24212074 10.54527664 C6.85088872 9.15441405 5.46688058 7.75633682 4.08325195 6.35791016 C3.2928804 5.56293121 2.50250885 4.76795227 1.68818665 3.94888306 C0 2 0 2 0 0 Z " fill="#192B4E" transform="translate(268,415)"/>
<path d="M0 0 C0.33 0 0.66 0 1 0 C3.04655469 9.62134505 3.24141623 18.97542941 3.125 28.75 C3.11493973 30.23697307 3.10581932 31.72395281 3.09765625 33.2109375 C3.075908 36.80743323 3.04155018 40.403672 3 44 C2.67 44 2.34 44 2 44 C1.67 37.73 1.34 31.46 1 25 C0.67 25 0.34 25 0 25 C0 16.75 0 8.5 0 0 Z " fill="#0E375C" transform="translate(669,229)"/>
<path d="M0 0 C0 4.92920973 -3.67994803 7.59742284 -7 11 C-8.85589222 12.68500707 -10.75445083 14.3066507 -12.66796875 15.92578125 C-17.67082642 20.37555918 -22.30261891 25.2321582 -27 30 C-27.66 29.67 -28.32 29.34 -29 29 C-19.43 19.43 -9.86 9.86 0 0 Z " fill="#011B5E" transform="translate(665,481)"/>
<path d="M0 0 C0.33 0.99 0.66 1.98 1 3 C-1.07430827 5.15524226 -3.15853821 7.29901391 -5.25 9.4375 C-5.83652344 10.04916016 -6.42304688 10.66082031 -7.02734375 11.29101562 C-7.88779297 12.1659668 -7.88779297 12.1659668 -8.765625 13.05859375 C-9.55114746 13.86768188 -9.55114746 13.86768188 -10.35253906 14.69311523 C-12.21582454 16.17120758 -13.67793522 16.59165211 -16 17 C-11.01595832 10.96668638 -5.58084697 5.4815829 0 0 Z " fill="#002157" transform="translate(411,483)"/>
<path d="M0 0 C2.1519437 3.22791555 2.20086443 4.28400809 2 8 C1.34 8 0.68 8 0 8 C0.309375 9.2684375 0.309375 9.2684375 0.625 10.5625 C1.06628064 14.60757258 0.30113967 17.16506203 -1 21 C-1.556875 22.7015625 -1.556875 22.7015625 -2.125 24.4375 C-2.41375 25.283125 -2.7025 26.12875 -3 27 C-4.12800972 23.58434439 -3.866975 21.09259089 -3.22265625 17.578125 C-3.03896484 16.55332031 -2.85527344 15.52851563 -2.66601562 14.47265625 C-2.46685547 13.40917969 -2.26769531 12.34570312 -2.0625 11.25 C-1.86720703 10.17105469 -1.67191406 9.09210938 -1.47070312 7.98046875 C-0.98784723 5.31887282 -0.49735831 2.65891745 0 0 Z " fill="#E1E7EB" transform="translate(139,434)"/>
<path d="M0 0 C0.99 0 1.98 0 3 0 C3.02725341 1.7290774 3.04650987 3.45828176 3.0625 5.1875 C3.07410156 6.15042969 3.08570313 7.11335938 3.09765625 8.10546875 C3.00486622 10.85576513 2.62111685 13.32479591 2 16 C0 14 0 14 -0.1953125 10.7421875 C-0.17210937 9.46601563 -0.14890625 8.18984375 -0.125 6.875 C-0.10695313 5.59367187 -0.08890625 4.31234375 -0.0703125 2.9921875 C-0.04710937 2.00476563 -0.02390625 1.01734375 0 0 Z " fill="#04264D" transform="translate(726,404)"/>
<path d="M0 0 C0.33 0 0.66 0 1 0 C1 7.92 1 15.84 1 24 C0.34 22.68 -0.32 21.36 -1 20 C-1.33 19.67 -1.66 19.34 -2 19 C-2.07226502 17.14712498 -2.0838122 15.29166122 -2.0625 13.4375 C-2.05347656 12.42558594 -2.04445312 11.41367187 -2.03515625 10.37109375 C-2.02355469 9.58863281 -2.01195312 8.80617188 -2 8 C-1.67 8 -1.34 8 -1 8 C-0.67 5.36 -0.34 2.72 0 0 Z " fill="#C8D3D9" transform="translate(233,332)"/>
<path d="M0 0 C6.32856887 1.77990999 11.25721902 6.62348049 15.0625 11.8125 C15.371875 12.534375 15.68125 13.25625 16 14 C15.67 14.66 15.34 15.32 15 16 C14.41992188 15.33613281 13.83984375 14.67226563 13.2421875 13.98828125 C9.05641052 9.25683367 4.94198708 4.92824614 0 1 C0 0.67 0 0.34 0 0 Z " fill="#F1D534" transform="translate(290,737)"/>
<path d="M0 0 C3.45201639 1.47721422 5.64961936 3.43794001 8.25 6.125 C8.95640625 6.84945313 9.6628125 7.57390625 10.390625 8.3203125 C11.18726563 9.15175781 11.18726563 9.15175781 12 10 C11.34 10.66 10.68 11.32 10 12 C8.32737283 10.38113585 6.66204463 8.7547271 5 7.125 C4.071875 6.22007812 3.14375 5.31515625 2.1875 4.3828125 C0 2 0 2 0 0 Z " fill="#DFA63C" transform="translate(497,460)"/>
<path d="M0 0 C2.16224804 1.85335546 3.16507788 3.33733306 4.4375 5.9375 C5.97035791 8.94190151 7.50898822 10.76667909 10 13 C9.67 13.66 9.34 14.32 9 15 C0.59653075 7.6302149 0.59653075 7.6302149 0 3 C0 2.01 0 1.02 0 0 Z " fill="#12285C" transform="translate(331,821)"/>
<path d="M0 0 C0.66 0.99 1.32 1.98 2 3 C1.01 3.66 0.02 4.32 -1 5 C-1 5.99 -1 6.98 -1 8 C-1.66 8.66 -2.32 9.32 -3 10 C-3.99 10 -4.98 10 -6 10 C-4.34832443 6.4213696 -2.21713508 3.25179812 0 0 Z " fill="#06254A" transform="translate(832,718)"/>
<path d="M0 0 C0.66 0.33 1.32 0.66 2 1 C-4.435 6.94 -4.435 6.94 -11 13 C-11 10 -11 10 -9.609375 8.28125 C-8.99578125 7.6934375 -8.3821875 7.105625 -7.75 6.5 C-6.79673828 5.58541016 -6.79673828 5.58541016 -5.82421875 4.65234375 C-3.9647835 2.96810154 -2.07578868 1.4115363 0 0 Z " fill="#7ECC69" transform="translate(285,279)"/>
<path d="M0 0 C0.99 0.495 0.99 0.495 2 1 C1.01 1.495 1.01 1.495 0 2 C0 1.34 0 0.68 0 0 Z M-1 2 C-1 2.99 -1 3.98 -1 5 C-1.99 5.495 -1.99 5.495 -3 6 C-2.34 4.68 -1.68 3.36 -1 2 Z M-4 6 C-3.34 6.66 -2.68 7.32 -2 8 C-4.475 9.485 -4.475 9.485 -7 11 C-5.125 7.125 -5.125 7.125 -4 6 Z M-9 12 C-9 12.99 -9 13.98 -9 15 C-9.99 15.495 -9.99 15.495 -11 16 C-10.34 14.68 -9.68 13.36 -9 12 Z " fill="#EFF3F5" transform="translate(836,750)"/>
<path d="M0 0 C1.32 0.66 2.64 1.32 4 2 C2.02 4.31 0.04 6.62 -2 9 C-2.33 7.68 -2.66 6.36 -3 5 C-2.34 4.67 -1.68 4.34 -1 4 C-0.34786708 1.97536745 -0.34786708 1.97536745 0 0 Z " fill="#F9D533" transform="translate(339,721)"/>
<path d="M0 0 C0 0.99 0 1.98 0 3 C-1.33333333 4.33333333 -2.66666667 5.66666667 -4 7 C-4 7.99 -4 8.98 -4 10 C-5.98 10.33 -7.96 10.66 -10 11 C-6.79239749 7.19364503 -3.59253891 3.45436433 0 0 Z " fill="#EED138" transform="translate(427,498)"/>
<path d="M0 0 C0 3.49889647 -0.54120332 4.0553603 -2.75 6.625 C-3.26046875 7.23601562 -3.7709375 7.84703125 -4.296875 8.4765625 C-6.19607419 10.17538747 -7.51275949 10.5998787 -10 11 C-6.79239749 7.19364503 -3.59253891 3.45436433 0 0 Z " fill="#E9CE38" transform="translate(440,485)"/>
<path d="M0 0 C0.33 0 0.66 0 1 0 C1.33 5.61 1.66 11.22 2 17 C-1 14 -1 14 -1.07421875 10.64453125 C-0.94660156 9.37996094 -0.81898438 8.11539062 -0.6875 6.8125 C-0.56761719 5.54019531 -0.44773437 4.26789063 -0.32421875 2.95703125 C-0.21722656 1.98121094 -0.11023438 1.00539063 0 0 Z " fill="#E4EAEC" transform="translate(733,327)"/>
<path d="M0 0 C0 3.54404336 -0.60989485 4.10267905 -2.875 6.6875 C-3.40867188 7.31011719 -3.94234375 7.93273437 -4.4921875 8.57421875 C-6 10 -6 10 -8 10 C-6.34908222 5.70761377 -3.26245434 3.1206085 0 0 Z " fill="#1D3457" transform="translate(185,689)"/>
<path d="M0 0 C0.99 0 1.98 0 3 0 C2.67 2.64 2.34 5.28 2 8 C1.01 8 0.02 8 -1 8 C-0.67 5.36 -0.34 2.72 0 0 Z " fill="#EBC136" transform="translate(194,743)"/>
<path d="M0 0 C3 4 3 4 3.07421875 6.359375 C2.94660156 7.14828125 2.81898438 7.9371875 2.6875 8.75 C2.50767578 9.94882812 2.50767578 9.94882812 2.32421875 11.171875 C2.21722656 11.77515625 2.11023438 12.3784375 2 13 C1.34 12.67 0.68 12.34 0 12 C0 8.04 0 4.08 0 0 Z " fill="#0E3B5F" transform="translate(130,532)"/>
<path d="M0 0 C0.99 0.33 1.98 0.66 3 1 C2.67 3.31 2.34 5.62 2 8 C0.68 7.01 -0.64 6.02 -2 5 C-1.125 1.125 -1.125 1.125 0 0 Z " fill="#EBCC34" transform="translate(188,834)"/>
<path d="M0 0 C0.86625 0.37125 0.86625 0.37125 1.75 0.75 C0.76 0.75 -0.23 0.75 -1.25 0.75 C-1.518125 1.36875 -1.78625 1.9875 -2.0625 2.625 C-3.25 4.75 -3.25 4.75 -6.25 6.75 C-6.25 3.75 -6.25 3.75 -4.5 1.5 C-2.25 -0.25 -2.25 -0.25 0 0 Z " fill="#1D325A" transform="translate(475.25,670.25)"/>
<path d="M0 0 C0 0.99 0 1.98 0 3 C-0.66 3 -1.32 3 -2 3 C-2.66 4.32 -3.32 5.64 -4 7 C-5.32 6.67 -6.64 6.34 -8 6 C-5.36 4.02 -2.72 2.04 0 0 Z " fill="#051E44" transform="translate(734,820)"/>
<path d="M0 0 C0 4.31618166 -2.13270348 5.92789659 -5 9 C-5.66 9 -6.32 9 -7 9 C-5.44499019 5.18315774 -2.96404505 2.80804268 0 0 Z " fill="#FDDC32" transform="translate(375,550)"/>
<path d="M0 0 C0.33 0.66 0.66 1.32 1 2 C-1.47812494 5.45167403 -2.79606135 7.23163306 -7 8 C-6.02133662 6.85373678 -5.04205413 5.70800212 -4.0625 4.5625 C-3.51722656 3.92441406 -2.97195313 3.28632812 -2.41015625 2.62890625 C-1.63204305 1.73008851 -0.84063472 0.84063472 0 0 Z " fill="#262F5A" transform="translate(629,516)"/>
<path d="M0 0 C0 0.66 0 1.32 0 2 C-6.625 3.25 -6.625 3.25 -10 1 C-8.71073008 0.63720544 -7.41846728 0.28503302 -6.125 -0.0625 C-5.40570312 -0.25972656 -4.68640625 -0.45695313 -3.9453125 -0.66015625 C-2 -1 -2 -1 0 0 Z " fill="#E9EEF0" transform="translate(619,901)"/>
<path d="M0 0 C3.36591866 1.44253657 5.51047079 3.33264727 8 6 C5.125 5.8125 5.125 5.8125 2 5 C0.625 2.4375 0.625 2.4375 0 0 Z " fill="#ECAB3D" transform="translate(651,556)"/>
<path d="M0 0 C-1.39332574 3.36720387 -2.9789286 4.9859524 -6 7 C-6.66 6.67 -7.32 6.34 -8 6 C-7.0479279 4.99403703 -6.08812654 3.99538437 -5.125 3 C-4.59132813 2.443125 -4.05765625 1.88625 -3.5078125 1.3125 C-2 0 -2 0 0 0 Z " fill="#EAEDF0" transform="translate(772,788)"/>
<path d="M0 0 C0.625 1.8125 0.625 1.8125 1 4 C-1 7 -1 7 -4 8 C-2.87548273 5.0280615 -1.77706209 2.66559313 0 0 Z " fill="#061E45" transform="translate(173,295)"/>
</svg>
